# The Great Editor v0.0.1
mtllib floor_1.mtl
o floor_1
v 5.536915045677708 -4.023483624386302 0
v 5.536915045677708 -4.023483624386302 -0.1
v 41.52688420545647 -4.060398670064011 0
v 41.52688420545647 -4.060398670064011 -0.1
v 41.52688420545647 -31.154375893356534 0
v 41.52688420545647 -31.154375893356534 -0.1
v 5.573830091355415 -31.154375893356534 0
v 5.573830091355415 -31.154375893356534 -0.1
vt 5.536915045677708 -4.023483624386302 0
vt 41.52688420545647 -4.060398670064011 0
vt 41.52688420545647 -31.154375893356534 0
vt 5.573830091355415 -31.154375893356534 0
vn 0 0 1
vn 0 0 -1
usemtl floor_1
s off
f 7/4/1 3/2/1 1/1/1
f 2/1/2 4/2/2 8/4/2
f 7/4/1 5/3/1 3/2/1
f 4/2/2 6/3/2 8/4/2
